<?xml version="1.0" standalone="no"?>
<!DOCTYPE svg PUBLIC "-//W3C//DTD SVG 20010904//EN"
 "http://www.w3.org/TR/2001/REC-SVG-20010904/DTD/svg10.dtd">
<svg version="1.0" xmlns="http://www.w3.org/2000/svg"
 width="64.000000pt" height="64.000000pt" viewBox="0 0 64.000000 64.000000"
 preserveAspectRatio="xMidYMid meet">

<g transform="translate(0.000000,64.000000) scale(0.100000,-0.100000)"
fill="#000000" stroke="none">
<path d="M360 575 c-9 -11 -44 -15 -159 -17 l-146 -3 -10 -31 c-5 -17 -18 -38
-27 -48 -26 -26 -25 -111 2 -133 17 -15 20 -30 20 -111 0 -123 5 -132 79 -132
40 0 63 -5 71 -15 17 -21 143 -21 160 0 8 10 31 15 71 15 35 0 61 5 66 12 4 7
10 39 13 72 l5 59 43 -37 c47 -39 76 -46 86 -20 3 9 6 75 6 149 0 170 -14 186
-100 111 l-35 -30 -5 60 c-6 74 -13 84 -54 84 -19 0 -39 7 -46 15 -16 19 -24
19 -40 0z m120 -245 l0 -210 -210 0 -210 0 0 104 c0 100 -1 104 -25 120 -36
24 -36 97 0 130 14 13 25 33 25 45 0 21 2 21 210 21 l210 0 0 -210z m140 0 c0
-161 -3 -165 -76 -104 l-44 35 0 69 c0 68 0 68 43 104 74 62 77 57 77 -104z
m-312 -237 c-21 -2 -55 -2 -75 0 -21 2 -4 4 37 4 41 0 58 -2 38 -4z"/>
<path d="M240 476 c-10 -28 -17 -31 -40 -16 -22 14 -52 -17 -40 -41 15 -27 12
-37 -12 -41 -17 -2 -23 -10 -23 -28 0 -18 6 -26 23 -28 23 -4 28 -18 12 -42
-14 -22 17 -52 41 -40 25 14 28 13 39 -16 13 -33 53 -30 58 4 4 24 14 27 41
12 24 -12 55 18 41 40 -16 24 -11 38 13 42 16 2 22 10 22 28 0 18 -6 26 -22
28 -24 4 -29 18 -13 42 14 22 -17 52 -41 40 -27 -15 -37 -12 -41 13 -5 33 -45
36 -58 3z m50 -15 c0 -24 19 -32 44 -19 25 13 41 -3 28 -28 -13 -25 -5 -44 19
-44 12 0 19 -7 19 -20 0 -13 -7 -20 -19 -20 -24 0 -32 -19 -19 -44 13 -25 -3
-41 -28 -28 -25 13 -44 5 -44 -19 0 -12 -7 -19 -20 -19 -13 0 -20 7 -20 19 0
24 -19 32 -44 19 -25 -13 -41 3 -28 28 13 25 5 44 -19 44 -12 0 -19 7 -19 20
0 13 7 20 19 20 24 0 32 19 19 44 -13 25 3 41 28 28 25 -13 44 -5 44 19 0 12
7 19 20 19 13 0 20 -7 20 -19z"/>
<path d="M240 380 c-11 -11 -20 -24 -20 -30 0 -5 9 -19 20 -30 11 -11 25 -20
30 -20 6 0 19 9 30 20 11 11 20 25 20 30 0 6 -9 19 -20 30 -11 11 -24 20 -30
20 -5 0 -19 -9 -30 -20z m55 -30 c0 -18 -6 -26 -23 -28 -13 -2 -25 3 -28 12
-10 26 4 48 28 44 17 -2 23 -10 23 -28z"/>
<path d="M90 160 c0 -5 5 -10 10 -10 6 0 10 5 10 10 0 6 -4 10 -10 10 -5 0
-10 -4 -10 -10z"/>
<path d="M140 160 c0 -5 5 -10 10 -10 6 0 10 5 10 10 0 6 -4 10 -10 10 -5 0
-10 -4 -10 -10z"/>
<path d="M190 160 c0 -5 5 -10 10 -10 6 0 10 5 10 10 0 6 -4 10 -10 10 -5 0
-10 -4 -10 -10z"/>
<path d="M240 160 c0 -5 5 -10 10 -10 6 0 10 5 10 10 0 6 -4 10 -10 10 -5 0
-10 -4 -10 -10z"/>
<path d="M290 160 c0 -5 5 -10 10 -10 6 0 10 5 10 10 0 6 -4 10 -10 10 -5 0
-10 -4 -10 -10z"/>
<path d="M340 160 c0 -5 5 -10 10 -10 6 0 10 5 10 10 0 6 -4 10 -10 10 -5 0
-10 -4 -10 -10z"/>
<path d="M390 160 c0 -5 5 -10 10 -10 6 0 10 5 10 10 0 6 -4 10 -10 10 -5 0
-10 -4 -10 -10z"/>
<path d="M440 160 c0 -5 5 -10 10 -10 6 0 10 5 10 10 0 6 -4 10 -10 10 -5 0
-10 -4 -10 -10z"/>
<path d="M580 330 c0 -60 4 -100 10 -100 6 0 10 40 10 100 0 60 -4 100 -10
100 -6 0 -10 -40 -10 -100z"/>
</g>
</svg>
