<svg id="Layer_1" data-name="Layer 1" xmlns="http://www.w3.org/2000/svg" xmlns:xlink="http://www.w3.org/1999/xlink" viewBox="0 0 245.31 388"><defs><style>.cls-1{fill:url(#linear-gradient);}.cls-2{fill:url(#linear-gradient-2);}.cls-3{fill:url(#linear-gradient-3);}.cls-4{fill:url(#linear-gradient-4);}.cls-5{fill:url(#linear-gradient-5);}</style><linearGradient id="linear-gradient" x1="-478.8" y1="908.35" x2="-473.41" y2="908.35" gradientTransform="translate(47808.64 34517.56) rotate(90) scale(72.08 52.36)" gradientUnits="userSpaceOnUse"><stop offset="0" stop-color="#ffea00"/><stop offset="1" stop-color="#fd5719"/></linearGradient><linearGradient id="linear-gradient-2" x1="-481.67" y1="903.51" x2="-477.04" y2="903.51" gradientTransform="matrix(-3.21, 51.2, -37.39, -2.34, 32528.74, 26898.76)" xlink:href="#linear-gradient"/><linearGradient id="linear-gradient-3" x1="-478.19" y1="907.49" x2="-474.31" y2="907.49" gradientTransform="matrix(4.61, 53.42, -50.08, 4.32, 47864.7, 21817.33)" xlink:href="#linear-gradient"/><linearGradient id="linear-gradient-4" x1="-476.55" y1="893.49" x2="-473" y2="893.49" gradientTransform="matrix(8.12, 75.21, -25.33, 2.73, 26726.39, 33470.95)" xlink:href="#linear-gradient"/><linearGradient id="linear-gradient-5" x1="-477.95" y1="901.77" x2="-474.4" y2="901.77" gradientTransform="matrix(7.69, 57.05, -36.2, 4.88, 36535.42, 22986.38)" xlink:href="#linear-gradient"/></defs><title>vulcan</title><path class="cls-1" d="M227.58,105.92c4.22,14.82-12.16,22.88-18.49,5.61-3.67-10-2.29-26-2.27-36.53-8.51,8.89-13.69,22.55-16,35.79-9.61,54.29,25.41,80.28-27.35,133.2-2.89-33.46.37-52.2,15.3-85.48-44.56,33.18-57.65,82-48.78,134,10.58,61.9,67.43,106.4,130.43,101.09A122.37,122.37,0,0,0,371.48,290C382.88,214.37,307,152.77,333,106.6c-19.1,8-23.59,39.44-24.32,56.24C300.16,110.75,239.63,68.7,268.42,6,226.46,35.29,218.15,72.84,227.58,105.92Z" transform="translate(-127.35 -6)"/><path class="cls-2" d="M333,106.6c-19.1,8-23.59,39.44-24.32,56.24-1.5,44,19,78.24,1.8,119.34-22.68,54.1-69.82,63.13-119.07,29.76,33.15,40.25,89.78,66.21,137.14,53.88A122.21,122.21,0,0,0,371.48,290C382.88,214.37,307,152.77,333,106.6Z" transform="translate(-127.35 -6)"/><path class="cls-3" d="M163.44,244c-2.89-33.46.37-52.2,15.3-85.48-44.56,33.18-57.65,82-48.78,134,10.58,61.9,67.43,106.4,130.43,101.09a121.74,121.74,0,0,0,68.2-27.75C257.58,384.31,165.76,316.72,163.44,244Z" transform="translate(-127.35 -6)"/><path class="cls-4" d="M227.58,105.92c4.22,14.82-12.16,22.88-18.49,5.61-3.67-10-2.29-26-2.27-36.53-8.51,8.89-13.69,22.55-16,35.79-7.53,42.57,12.37,67.74-4.12,102.14C311.48,140.74,199.39,96.59,268.42,6,226.46,35.29,218.15,72.84,227.58,105.92Z" transform="translate(-127.35 -6)"/><path class="cls-5" d="M206.82,75c-8.51,8.89-13.69,22.55-16,35.79-9.61,54.29,25.41,80.28-27.35,133.2.77,24.21,11.46,47.86,28,67.95,43.45,29.44,85.27,25.88,110.08-12.52C325.72,257.52,180.45,166.87,206.82,75Z" transform="translate(-127.35 -6)"/></svg>